<?xml version="1.0" encoding="utf-8"?>
<!-- Created by sK1 2.0rc4 (https://sk1project.net/) -->
<svg xmlns="http://www.w3.org/2000/svg" height="640.0px" width="640.0px" version="1.1" xmlns:xlink="http://www.w3.org/1999/xlink" id="5d1df7a2-bfa4-11e9-9644-d4258bf813e9">

<g>
	<g>
		<path style="fill:#393838;" d="M 407.58,454.0 L 532.58,413.15 532.58,290.19 407.58,331.45 407.58,454.0 Z" />
		<path style="stroke:#ffffff;stroke-width:0.0;stroke-miterlimit:4.0;fill:#393838;" d="M 407.58,454.0 L 532.58,413.15 532.58,290.19 407.58,331.45 407.58,454.0 Z" />
	</g>
	<g>
		<path style="fill:#687b99;" d="M 202.58,114.94 L 427.58,176.21 302.58,217.06 77.58,155.79 202.58,114.94 Z" />
		<path style="stroke:#ffffff;stroke-width:0.0;stroke-miterlimit:4.0;fill:#687b99;" d="M 202.58,114.94 L 427.58,176.21 302.58,217.06 77.58,155.79 202.58,114.94 Z" />
	</g>
	<g>
		<path style="fill:#687b99;" d="M 337.58,70.0 L 562.58,131.28 437.58,172.13 212.58,110.85 337.58,70.0 Z" />
		<path style="stroke:#ffffff;stroke-width:0.0;stroke-miterlimit:4.0;fill:#687b99;" d="M 337.58,70.0 L 562.58,131.28 437.58,172.13 212.58,110.85 337.58,70.0 Z" />
	</g>
	<path style="fill:#393838;" d="M 372.58,237.49 L 432.58,254.65 432.58,180.3 307.58,221.15 372.58,237.49 Z" />
	<g>
		<path style="fill:#454f68;" d="M 172.58,270.17 L 397.58,331.45 397.58,454.0 172.58,392.72 172.58,270.17 Z" />
		<path style="stroke:#ffffff;stroke-width:0.0;stroke-miterlimit:4.0;fill:#454f68;" d="M 172.58,270.17 L 397.58,331.45 397.58,454.0 172.58,392.72 172.58,270.17 Z" />
	</g>
	<g>
		<path style="fill:#687b99;" d="M 302.58,225.23 L 527.58,286.51 402.58,327.36 177.58,266.09 302.58,225.23 Z" />
		<path style="stroke:#f5a95c;stroke-width:0.0;stroke-miterlimit:4.0;fill:#687b99;" d="M 302.58,225.23 L 527.58,286.51 402.58,327.36 177.58,266.09 302.58,225.23 Z" />
	</g>
	<path style="fill:#393838;" d="M 440.7847,476.6749 C 435.441,476.6749 429.691,479.1437 425.0972,484.8937 L 424.3472,478.6749 409.4097,478.6749 409.4097,559.6749 426.2691,557.8624 426.2691,531.8156 C 429.691,535.6593 434.1597,537.6749 439.7066,537.6749 453.4722,537.6749 461.4722,524.8781 461.4722,507.1749 461.4722,488.5031 455.5035,476.7687 440.7847,476.7687 Z M 435.5504,489.3624 C 440.8785,489.3624 444.0816,493.1437 444.0816,507.3937 444.0816,520.3468 440.566,525.3156 434.5972,525.3156 431.066,525.3156 428.6129,523.6906 426.2691,520.2374 L 426.2691,496.0656 C 428.7222,491.8468 431.5972,489.3624 435.5504,489.3624 Z" />
	<path style="fill:#393838;" d="M 526.9722,478.6749 L 509.691,478.6749 497.7379,524.8468 486.7535,478.6749 468.941,478.6749 486.8629,535.6749 492.7222,535.6749 C 489.6285,543.2999 485.5816,546.6749 474.4879,548.1281 L 476.4097,560.6749 C 493.5816,559.6749 503.066,551.4874 508.0816,535.6749 Z" />
	<g>
		<path style="fill:#393838;" d="M 442.58,257.91 L 567.58,258.32 567.58,135.36 442.58,176.62 442.58,257.91 Z" />
		<path style="fill:#393838;" d="M 517.58,278.34 L 567.58,258.32 567.58,135.36 442.58,257.91 517.58,278.34 Z" />
	</g>
	<g>
		<path style="fill:#454f68;" d="M 119.5035,524.3468 C 112.2379,524.3468 106.9097,520.4406 106.9097,507.6124 106.9097,494.5812 111.9254,489.6906 119.5972,489.6906 124.191,489.6906 128.4566,491.3312 132.3004,494.0343 L 139.5504,483.8312 C 133.8941,479.1437 127.3941,476.6749 118.8629,476.6749 100.6129,476.6749 89.316,489.5968 89.316,507.6124 89.316,525.6281 100.191,537.6749 118.5347,537.6749 127.2847,537.6749 134.5347,534.4874 139.5504,530.2218 L 132.0816,519.4562 C 128.0347,522.2843 124.0816,524.3468 119.5035,524.3468 Z" />
		<path style="fill:#454f68;" d="M 170.2691,454.6749 L 153.4097,456.6749 153.4097,535.6749 170.2691,535.6749 170.2691,496.1593 C 173.4722,491.8624 176.566,489.1593 180.191,489.1593 184.3472,489.1593 185.6285,491.5343 185.6285,498.4249 L 185.6285,535.6749 202.4879,535.6749 202.4879,493.6906 C 202.4879,482.8624 196.941,476.6749 186.9097,476.6749 180.6129,476.6749 175.066,479.1437 170.2691,484.2531 Z" />
		<path style="fill:#454f68;" d="M 265.0972,519.3624 L 265.0972,496.8312 C 265.0972,483.7218 257.2066,476.6749 240.3472,476.6749 234.0504,476.6749 225.6285,478.1749 218.2691,480.9562 L 222.1129,492.1906 C 227.7691,490.2374 234.0504,489.1593 237.691,489.1593 244.941,489.1593 248.8785,491.9718 248.8785,498.0343 L 248.8785,500.0812 241.316,500.0812 C 223.816,500.0812 213.6754,507.1281 213.6754,519.6906 213.6754,530.3156 221.1441,537.6749 232.8785,537.6749 239.9254,537.6749 247.066,535.2218 251.441,530.0031 254.1129,534.6906 258.7066,536.8312 265.316,537.4718 L 268.8316,526.3781 C 266.1597,525.4093 265.0972,523.7531 265.0972,519.3624 Z M 238.6441,525.6281 C 233.8472,525.6281 231.066,522.9874 231.066,518.4874 231.066,512.7687 235.3316,509.6749 244.7222,509.6749 L 248.8785,509.6749 248.8785,519.2531 C 246.7535,523.3156 242.2691,525.6281 238.6441,525.6281 Z" />
		<path style="fill:#454f68;" d="M 305.9566,476.6749 C 288.566,476.6749 278.4254,488.8468 278.4254,507.1906 278.4254,526.5812 288.566,537.6749 305.9566,537.6749 323.3316,537.6749 333.4722,526.3781 333.4722,507.0812 333.4722,488.6281 323.441,476.6749 305.9566,476.6749 Z M 305.9566,489.1593 C 312.8785,489.1593 316.0816,494.5968 316.0816,507.0812 316.0816,519.9874 312.8785,525.3156 305.9566,525.3156 299.0191,525.3156 295.816,519.9874 295.816,507.1906 295.816,494.5968 299.0191,489.1593 305.9566,489.1593 Z" />
		<path style="fill:#454f68;" d="M 368.1441,525.6281 C 361.5191,525.6281 355.8629,523.0187 351.5035,519.5499 L 343.066,529.1437 C 348.8316,534.2687 357.2535,537.6749 368.2379,537.6749 382.6441,537.6749 395.0191,531.3937 395.0191,518.7999 395.0191,507.5031 387.8785,503.7062 376.8785,500.5656 365.7847,497.4249 363.5504,496.1124 363.5504,493.1906 363.5504,490.1437 366.1129,488.7374 371.6597,488.7374 377.0972,488.7374 382.6441,490.6906 387.3316,493.6124 L 394.066,483.6124 C 388.5191,479.5656 381.2535,476.6749 371.1285,476.6749 355.2222,476.6749 346.5816,484.1437 346.5816,494.3781 346.5816,504.5812 353.7379,509.1281 364.0816,511.9562 375.3941,515.0968 377.5191,516.5187 377.5191,520.2062 377.5191,523.8937 373.7847,525.6281 368.1441,525.6281 Z" />
	</g>
	<g>
		<path style="fill:#454f68;" d="M 72.58,160.49 L 297.58,221.76 147.58,270.17 157.58,262.0 72.58,160.49 Z" />
		<path style="fill:#454f68;" d="M 72.58,160.49 L 162.58,185.2 162.58,306.94 72.58,283.04 72.58,160.49 Z" />
	</g>
</g>
</svg>