<?xml version="1.0" encoding="UTF-8" standalone="no"?>
<svg
   xmlns:dc="http://purl.org/dc/elements/1.1/"
   xmlns:cc="http://creativecommons.org/ns#"
   xmlns:rdf="http://www.w3.org/1999/02/22-rdf-syntax-ns#"
   xmlns:svg="http://www.w3.org/2000/svg"
   xmlns="http://www.w3.org/2000/svg"
   xmlns:sodipodi="http://sodipodi.sourceforge.net/DTD/sodipodi-0.dtd"
   xmlns:inkscape="http://www.inkscape.org/namespaces/inkscape"
   height="384"
   width="1874.9408"
   version="1.1"
   id="5d1df7a2-bfa4-11e9-9644-d4258bf813e9"
   sodipodi:docname="chaospy_logo2.svg"
   inkscape:version="1.0.1 (3bc2e813f5, 2020-09-07)">
  <metadata
     id="metadata69">
    <rdf:RDF>
      <cc:Work
         rdf:about="">
        <dc:format>image/svg+xml</dc:format>
        <dc:type
           rdf:resource="http://purl.org/dc/dcmitype/StillImage" />
        <dc:title></dc:title>
      </cc:Work>
    </rdf:RDF>
  </metadata>
  <defs
     id="defs67" />
  <sodipodi:namedview
     pagecolor="#ffffff"
     bordercolor="#666666"
     borderopacity="1"
     objecttolerance="10"
     gridtolerance="10"
     guidetolerance="10"
     inkscape:pageopacity="0"
     inkscape:pageshadow="2"
     inkscape:window-width="2520"
     inkscape:window-height="1374"
     id="namedview65"
     showgrid="false"
     inkscape:zoom="0.69044441"
     inkscape:cx="914.374"
     inkscape:cy="136.40482"
     inkscape:window-x="20"
     inkscape:window-y="46"
     inkscape:window-maximized="0"
     inkscape:current-layer="5d1df7a2-bfa4-11e9-9644-d4258bf813e9" />
  <g
     id="g6"
     transform="translate(-72.58,-69.999999)">
    <path
       style="fill:#393838"
       d="m 407.58,454 125,-40.85 V 290.19 l -125,41.26 z"
       id="path2" />
    <path
       style="fill:#393838;stroke:#ffffff;stroke-width:0;stroke-miterlimit:4"
       d="m 407.58,454 125,-40.85 V 290.19 l -125,41.26 z"
       id="path4" />
  </g>
  <g
     id="g12"
     transform="translate(-72.58,-69.999999)">
    <path
       style="fill:#687b99"
       d="m 202.58,114.94 225,61.27 -125,40.85 -225,-61.27 z"
       id="path8" />
    <path
       style="fill:#687b99;stroke:#ffffff;stroke-width:0;stroke-miterlimit:4"
       d="m 202.58,114.94 225,61.27 -125,40.85 -225,-61.27 z"
       id="path10" />
  </g>
  <g
     id="g18"
     transform="translate(-72.58,-69.999999)">
    <path
       style="fill:#687b99"
       d="m 337.58,70 225,61.28 -125,40.85 -225,-61.28 z"
       id="path14" />
    <path
       style="fill:#687b99;stroke:#ffffff;stroke-width:0;stroke-miterlimit:4"
       d="m 337.58,70 225,61.28 -125,40.85 -225,-61.28 z"
       id="path16" />
  </g>
  <path
     style="fill:#393838"
     d="m 300,167.49 60,17.16 V 110.3 l -125,40.85 z"
     id="path20" />
  <g
     id="g26"
     transform="translate(-72.58,-69.999999)">
    <path
       style="fill:#454f68"
       d="m 172.58,270.17 225,61.28 V 454 l -225,-61.28 z"
       id="path22" />
    <path
       style="fill:#454f68;stroke:#ffffff;stroke-width:0;stroke-miterlimit:4"
       d="m 172.58,270.17 225,61.28 V 454 l -225,-61.28 z"
       id="path24" />
  </g>
  <g
     id="g32"
     transform="translate(-72.58,-69.999999)">
    <path
       style="fill:#687b99"
       d="m 302.58,225.23 225,61.28 -125,40.85 -225,-61.27 z"
       id="path28" />
    <path
       style="fill:#687b99;stroke:#f5a95c;stroke-width:0;stroke-miterlimit:4"
       d="m 302.58,225.23 225,61.28 -125,40.85 -225,-61.27 z"
       id="path30" />
  </g>
  <g
     id="g42"
     transform="translate(-72.58,-69.999999)">
    <path
       style="fill:#393838"
       d="m 442.58,257.91 125,0.41 V 135.36 l -125,41.26 z"
       id="path38" />
    <path
       style="fill:#393838"
       d="m 517.58,278.34 50,-20.02 V 135.36 l -125,122.55 z"
       id="path40" />
  </g>
  <g
     id="g932"
     transform="matrix(3.0017588,0,0,3.0017588,293.09732,-1321.2292)">
    <path
       style="fill:#393838"
       d="m 440.7847,476.6749 c -5.3437,0 -11.0937,2.4688 -15.6875,8.2188 l -0.75,-6.2188 h -14.9375 v 81 l 16.8594,-1.8125 v -26.0468 c 3.4219,3.8437 7.8906,5.8593 13.4375,5.8593 13.7656,0 21.7656,-12.7968 21.7656,-30.5 0,-18.6718 -5.9687,-30.4062 -20.6875,-30.4062 z m -5.2343,12.6875 c 5.3281,0 8.5312,3.7813 8.5312,18.0313 0,12.9531 -3.5156,17.9219 -9.4844,17.9219 -3.5312,0 -5.9843,-1.625 -8.3281,-5.0782 v -24.1718 c 2.4531,-4.2188 5.3281,-6.7032 9.2813,-6.7032 z"
       id="path34" />
    <path
       style="fill:#393838"
       d="M 526.9722,478.6749 H 509.691 l -11.9531,46.1719 -10.9844,-46.1719 H 468.941 l 17.9219,57 h 5.8593 c -3.0937,7.625 -7.1406,11 -18.2343,12.4532 l 1.9218,12.5468 c 17.1719,-1 26.6563,-9.1875 31.6719,-25 z"
       id="path36" />
    <g
       id="g54">
      <path
         style="fill:#454f68"
         d="m 119.5035,524.3468 c -7.2656,0 -12.5938,-3.9062 -12.5938,-16.7344 0,-13.0312 5.0157,-17.9218 12.6875,-17.9218 4.5938,0 8.8594,1.6406 12.7032,4.3437 l 7.25,-10.2031 c -5.6563,-4.6875 -12.1563,-7.1563 -20.6875,-7.1563 -18.25,0 -29.5469,12.9219 -29.5469,30.9375 0,18.0157 10.875,30.0625 29.2187,30.0625 8.75,0 16,-3.1875 21.0157,-7.4531 l -7.4688,-10.7656 c -4.0469,2.8281 -8,4.8906 -12.5781,4.8906 z"
         id="path44" />
      <path
         style="fill:#454f68"
         d="m 170.2691,454.6749 -16.8594,2 v 79 h 16.8594 v -39.5156 c 3.2031,-4.2969 6.2969,-7 9.9219,-7 4.1562,0 5.4375,2.375 5.4375,9.2656 v 37.25 h 16.8594 v -41.9843 c 0,-10.8282 -5.5469,-17.0157 -15.5782,-17.0157 -6.2968,0 -11.8437,2.4688 -16.6406,7.5782 z"
         id="path46" />
      <path
         style="fill:#454f68"
         d="m 265.0972,519.3624 v -22.5312 c 0,-13.1094 -7.8906,-20.1563 -24.75,-20.1563 -6.2968,0 -14.7187,1.5 -22.0781,4.2813 l 3.8438,11.2344 c 5.6562,-1.9532 11.9375,-3.0313 15.5781,-3.0313 7.25,0 11.1875,2.8125 11.1875,8.875 v 2.0469 h -7.5625 c -17.5,0 -27.6406,7.0469 -27.6406,19.6094 0,10.625 7.4687,17.9843 19.2031,17.9843 7.0469,0 14.1875,-2.4531 18.5625,-7.6718 2.6719,4.6875 7.2656,6.8281 13.875,7.4687 l 3.5156,-11.0937 c -2.6719,-0.9688 -3.7344,-2.625 -3.7344,-7.0157 z m -26.4531,6.2657 c -4.7969,0 -7.5781,-2.6407 -7.5781,-7.1407 0,-5.7187 4.2656,-8.8125 13.6562,-8.8125 h 4.1563 v 9.5782 c -2.125,4.0625 -6.6094,6.375 -10.2344,6.375 z"
         id="path48" />
      <path
         style="fill:#454f68"
         d="m 305.9566,476.6749 c -17.3906,0 -27.5312,12.1719 -27.5312,30.5157 0,19.3906 10.1406,30.4843 27.5312,30.4843 17.375,0 27.5156,-11.2968 27.5156,-30.5937 0,-18.4531 -10.0312,-30.4063 -27.5156,-30.4063 z m 0,12.4844 c 6.9219,0 10.125,5.4375 10.125,17.9219 0,12.9062 -3.2031,18.2344 -10.125,18.2344 -6.9375,0 -10.1406,-5.3282 -10.1406,-18.125 0,-12.5938 3.2031,-18.0313 10.1406,-18.0313 z"
         id="path50" />
      <path
         style="fill:#454f68"
         d="m 368.1441,525.6281 c -6.625,0 -12.2812,-2.6094 -16.6406,-6.0782 l -8.4375,9.5938 c 5.7656,5.125 14.1875,8.5312 25.1719,8.5312 14.4062,0 26.7812,-6.2812 26.7812,-18.875 0,-11.2968 -7.1406,-15.0937 -18.1406,-18.2343 -11.0938,-3.1407 -13.3281,-4.4532 -13.3281,-7.375 0,-3.0469 2.5625,-4.4532 8.1093,-4.4532 5.4375,0 10.9844,1.9532 15.6719,4.875 l 6.7344,-10 c -5.5469,-4.0468 -12.8125,-6.9375 -22.9375,-6.9375 -15.9063,0 -24.5469,7.4688 -24.5469,17.7032 0,10.2031 7.1563,14.75 17.5,17.5781 11.3125,3.1406 13.4375,4.5625 13.4375,8.25 0,3.6875 -3.7344,5.4219 -9.375,5.4219 z"
         id="path52" />
    </g>
  </g>
  <g
     id="g60"
     transform="translate(-72.58,-69.999999)">
    <path
       style="fill:#454f68"
       d="m 72.58,160.49 225,61.27 -150,48.41 10,-8.17 z"
       id="path56" />
    <path
       style="fill:#454f68"
       d="m 72.58,160.49 90,24.71 v 121.74 l -90,-23.9 z"
       id="path58" />
  </g>
</svg>
