<svg height="640" width="640" xmlns="http://www.w3.org/2000/svg"><path d="m407.58 454 125-40.85v-122.96l-125 41.26z" fill="#393838"/><path d="m407.58 454 125-40.85v-122.96l-125 41.26z" fill="#393838"/><path d="m202.58 114.94 225 61.27-125 40.85-225-61.27z" fill="#687b99"/><path d="m202.58 114.94 225 61.27-125 40.85-225-61.27z" fill="#687b99"/><path d="m337.58 70 225 61.28-125 40.85-225-61.28z" fill="#687b99"/><path d="m337.58 70 225 61.28-125 40.85-225-61.28z" fill="#687b99"/><path d="m372.58 237.49 60 17.16v-74.35l-125 40.85z" fill="#393838"/><path d="m172.58 270.17 225 61.28v122.55l-225-61.28z" fill="#454f68"/><path d="m172.58 270.17 225 61.28v122.55l-225-61.28z" fill="#454f68"/><path d="m302.58 225.23 225 61.28-125 40.85-225-61.27z" fill="#687b99"/><path d="m302.58 225.23 225 61.28-125 40.85-225-61.27z" fill="#687b99"/><path d="m440.7847 476.6749c-5.3437 0-11.0937 2.4688-15.6875 8.2188l-.75-6.2188h-14.9375v81l16.8594-1.8125v-26.0468c3.4219 3.8437 7.8906 5.8593 13.4375 5.8593 13.7656 0 21.7656-12.7968 21.7656-30.5 0-18.6718-5.9687-30.4062-20.6875-30.4062zm-5.2343 12.6875c5.3281 0 8.5312 3.7813 8.5312 18.0313 0 12.9531-3.5156 17.9219-9.4844 17.9219-3.5312 0-5.9843-1.625-8.3281-5.0782v-24.1718c2.4531-4.2188 5.3281-6.7032 9.2813-6.7032z" fill="#393838"/><path d="m526.9722 478.6749h-17.2812l-11.9531 46.1719-10.9844-46.1719h-17.8125l17.9219 57h5.8593c-3.0937 7.625-7.1406 11-18.2343 12.4532l1.9218 12.5468c17.1719-1 26.6563-9.1875 31.6719-25z" fill="#393838"/><path d="m442.58 257.91 125 .41v-122.96l-125 41.26z" fill="#393838"/><path d="m517.58 278.34 50-20.02v-122.96l-125 122.55z" fill="#393838"/><g fill="#454f68"><path d="m119.5035 524.3468c-7.2656 0-12.5938-3.9062-12.5938-16.7344 0-13.0312 5.0157-17.9218 12.6875-17.9218 4.5938 0 8.8594 1.6406 12.7032 4.3437l7.25-10.2031c-5.6563-4.6875-12.1563-7.1563-20.6875-7.1563-18.25 0-29.5469 12.9219-29.5469 30.9375 0 18.0157 10.875 30.0625 29.2187 30.0625 8.75 0 16-3.1875 21.0157-7.4531l-7.4688-10.7656c-4.0469 2.8281-8 4.8906-12.5781 4.8906z"/><path d="m170.2691 454.6749-16.8594 2v79h16.8594v-39.5156c3.2031-4.2969 6.2969-7 9.9219-7 4.1562 0 5.4375 2.375 5.4375 9.2656v37.25h16.8594v-41.9843c0-10.8282-5.5469-17.0157-15.5782-17.0157-6.2968 0-11.8437 2.4688-16.6406 7.5782z"/><path d="m265.0972 519.3624v-22.5312c0-13.1094-7.8906-20.1563-24.75-20.1563-6.2968 0-14.7187 1.5-22.0781 4.2813l3.8438 11.2344c5.6562-1.9532 11.9375-3.0313 15.5781-3.0313 7.25 0 11.1875 2.8125 11.1875 8.875v2.0469h-7.5625c-17.5 0-27.6406 7.0469-27.6406 19.6094 0 10.625 7.4687 17.9843 19.2031 17.9843 7.0469 0 14.1875-2.4531 18.5625-7.6718 2.6719 4.6875 7.2656 6.8281 13.875 7.4687l3.5156-11.0937c-2.6719-.9688-3.7344-2.625-3.7344-7.0157zm-26.4531 6.2657c-4.7969 0-7.5781-2.6407-7.5781-7.1407 0-5.7187 4.2656-8.8125 13.6562-8.8125h4.1563v9.5782c-2.125 4.0625-6.6094 6.375-10.2344 6.375z"/><path d="m305.9566 476.6749c-17.3906 0-27.5312 12.1719-27.5312 30.5157 0 19.3906 10.1406 30.4843 27.5312 30.4843 17.375 0 27.5156-11.2968 27.5156-30.5937 0-18.4531-10.0312-30.4063-27.5156-30.4063zm0 12.4844c6.9219 0 10.125 5.4375 10.125 17.9219 0 12.9062-3.2031 18.2344-10.125 18.2344-6.9375 0-10.1406-5.3282-10.1406-18.125 0-12.5938 3.2031-18.0313 10.1406-18.0313z"/><path d="m368.1441 525.6281c-6.625 0-12.2812-2.6094-16.6406-6.0782l-8.4375 9.5938c5.7656 5.125 14.1875 8.5312 25.1719 8.5312 14.4062 0 26.7812-6.2812 26.7812-18.875 0-11.2968-7.1406-15.0937-18.1406-18.2343-11.0938-3.1407-13.3281-4.4532-13.3281-7.375 0-3.0469 2.5625-4.4532 8.1093-4.4532 5.4375 0 10.9844 1.9532 15.6719 4.875l6.7344-10c-5.5469-4.0468-12.8125-6.9375-22.9375-6.9375-15.9063 0-24.5469 7.4688-24.5469 17.7032 0 10.2031 7.1563 14.75 17.5 17.5781 11.3125 3.1406 13.4375 4.5625 13.4375 8.25s-3.7344 5.4219-9.375 5.4219z"/><path d="m72.58 160.49 225 61.27-150 48.41 10-8.17z"/><path d="m72.58 160.49 90 24.71v121.74l-90-23.9z"/></g></svg>